<svg version="1.1" id="Layer_1" xmlns="http://www.w3.org/2000/svg" xmlns:xlink="http://www.w3.org/1999/xlink" x="0px" y="0px"
	 viewBox="0 0 140 143.2" enable-background="new 0 0 140 143.2" xml:space="preserve">
<title>Artboard 30</title>
<g id="SVG">
	<path opacity="0.08" fill="#16233A" enable-background="new    " d="M140,79.1c0,35.4-28.7,64.1-64.1,64.2
		c-35.4,0-64.1-28.7-64.2-64.1S40.4,15,75.8,15c0,0,0,0,0.1,0c35.3-0.1,64.1,28.5,64.1,63.9C140,78.9,140,79,140,79.1z"/>
	
		<rect x="91.71" y="96.62" transform="matrix(0.8616 -0.5077 0.5077 0.8616 -42.822 63.5263)" fill="#6E6FAC" width="6.7" height="27.3"/>
	<circle fill="#FFFFFF" cx="78.1" cy="80.3" r="33.9"/>
	<path opacity="0.38" fill="#C3C3E1" enable-background="new    " d="M100.9,55.2c13.9,12.6,14.9,34,2.3,47.9
		c-8.8,9.7-22.3,13.4-34.8,9.7l2.4,0.1c0,0,21.1-1.7,28.1-24.2c4.4-17.2,0.1-26.3-4.6-38.2C96.8,51.9,99,53.4,100.9,55.2z"/>
	<circle fill="none" stroke="#6E6FAC" stroke-width="6.25" stroke-miterlimit="10" cx="78.1" cy="80.3" r="33.9"/>
	<path fill="#FFFFFF" d="M58.6,24.2C58.6,10.8,47.7,0,34.4,0l0,0H24.2C10.8,0,0,10.8,0,24.2s10.8,24.2,24.2,24.2h7.7
		c0.9,2.3,4.4,7.8,11.8,7.1c-1.9-2-4-5.9-4.3-7.7C50.6,45.5,58.6,35.6,58.6,24.2z"/>
	<g>
		<path fill="#E3646A" d="M32,10.3c1,0.3,1.8,0.8,2.6,1.4c0.8,0.6,1.4,1.4,1.8,2.3c0.4,0.9,0.6,1.9,0.6,3c0,1.3-0.3,2.5-1,3.8
			c-0.5,0.9-1.4,2-2.5,3.1c-0.1,0-0.1,0.1-0.2,0.2c-0.1,0.1-0.2,0.2-0.3,0.3c-0.5,0.4-0.8,0.8-1.1,1.1c-0.3,0.4-0.5,0.8-0.5,1.3
			c0,0.2,0,0.4,0,0.8c0,0.9-0.1,1.6-0.4,2.1c-0.3,0.6-0.9,0.9-1.9,0.9c-0.9,0-1.6-0.4-1.9-1.1c-0.2-0.5-0.4-1.3-0.4-2.4
			c0-0.8,0.1-1.6,0.4-2.3s0.6-1.3,1-1.9s0.9-1.1,1.3-1.5c0.6-0.5,1-1,1.4-1.4s0.7-0.8,0.9-1.3c0.3-0.5,0.4-1,0.4-1.5
			c0-0.9-0.4-1.6-1.1-2.1c-0.6-0.4-1.4-0.6-2.4-0.6c-0.4,0-0.9,0.1-1.3,0.2C27,14.8,26.5,15,26,15.3c-0.6,0.3-1,0.5-1.3,0.6
			c-0.3,0.1-0.6,0.2-0.9,0.2c-0.6,0-1.2-0.2-1.6-0.7c-0.5-0.4-0.7-1-0.7-1.6c0-0.8,0.5-1.6,1.4-2.2c0.8-0.5,1.8-0.9,3-1.2
			c1-0.3,1.9-0.4,2.8-0.4C30,9.8,31,9.9,32,10.3z M30.4,32.9c0.4,0.2,0.7,0.4,0.9,0.6c0.3,0.3,0.5,0.6,0.6,0.9
			c0.2,0.4,0.2,0.7,0.2,1.1s-0.1,0.7-0.2,1.1c-0.2,0.4-0.4,0.7-0.6,0.9s-0.6,0.5-0.9,0.6s-0.7,0.2-1.1,0.2s-0.7-0.1-1.1-0.2
			s-0.7-0.4-0.9-0.6s-0.5-0.6-0.6-0.9c-0.2-0.4-0.2-0.7-0.2-1.1s0.1-0.7,0.2-1.1c0.2-0.4,0.4-0.7,0.6-0.9c0.3-0.3,0.6-0.5,0.9-0.6
			s0.7-0.2,1.1-0.2S30,32.8,30.4,32.9z"/>
	</g>
	
		<ellipse transform="matrix(0.8892 -0.4575 0.4575 0.8892 -30.3769 40.7368)" fill="#605D5A" cx="68.92" cy="83.09" rx="2.6" ry="4.7"/>
	
		<ellipse transform="matrix(0.8892 -0.4575 0.4575 0.8892 -24.5576 46.9752)" fill="#605D5A" cx="84.71" cy="74.19" rx="2.6" ry="4.7"/>
	<g opacity="0.8">
		<path fill="#C3C3E1" d="M81,93.9c-0.4-1-0.2-2.2,0.3-3.2s1.2-1.8,2.1-2.3c0.9-0.6,1.8-0.9,2.8-1s2.1,0,3,0.7
			c0.3,0.3,0.4,0.8,0.2,1.1c-0.1,0.1-0.1,0.1-0.2,0.2L89,89.5c-0.7,0.4-1.3,0.8-1.8,1.2l-1.6,1c-0.5,0.3-1,0.7-1.5,1
			c-0.5,0.4-1,0.7-1.6,1.3l-0.1,0.1c-0.3,0.3-0.8,0.3-1.1,0C81.1,94.1,81.1,94,81,93.9z"/>
	</g>
	<path fill="#E3646A" d="M107.8,120.8c-1.6-2.7-5-3.6-7.7-2.1s-3.6,5-2.1,7.7l6,10.4c3.4-1.7,6.6-3.6,9.6-5.8L107.8,120.8z"/>
</g>
</svg>
